<svg width="512" height="120" viewBox="0 0 512 120" fill="none" xmlns="http://www.w3.org/2000/svg">
<path fill-rule="evenodd" clip-rule="evenodd" d="M80.6222 96.4236C89.3978 97.8135 100.534 96.8317 108.762 92.2427C101.596 91.7132 99.9114 91.5588 95.5772 90.5109C104.117 91.0734 114.341 89.4519 121.636 83.495C115.338 84.4989 110.693 85.1718 102.25 83.6053C120.027 82.7449 127.783 78.7295 133.855 69.4744C133.855 69.4744 118.396 75.365 105.136 75.7401C119.126 73.0154 139.488 67.1027 142.105 50.0154C132.3 56.9319 121.046 65.3928 106.584 67.2792C129.671 60.506 144.755 43.1981 141.344 31.2955C126.946 46.8715 113.483 54.6816 104.042 59.1382C130.615 42.9113 146.6 21.5218 133.458 0C120.402 32.4648 107.292 49.6734 90.3526 59.7669C89.4729 60.5612 87.3273 60.7267 88.679 63.319C91.9726 69.5957 94.5902 79.0605 85.2567 79.4576C83.7655 79.4466 82.2099 79.3032 80.7616 78.9833C76.5025 78.0125 71.3316 72.8499 74.6466 70.2135C76.0841 69.0662 79.088 69.6068 81.3088 69.2427C82.5854 68.6801 83.6904 68.7794 84.6452 66.4629C79.8819 68.1286 77.7148 66.3636 75.0113 64.4552C71.6641 62.1056 68.6924 61.0024 66.5146 62.6902C63.5966 61.0245 61.3115 61.2562 59.5628 63.0763C68.6388 69.2648 67.8342 77.825 59.1122 79.2701C57.5673 79.5238 55.9259 79.5789 54.4025 79.1818C47.6438 77.3948 51.0768 67.7535 53.4048 63.33C54.2523 61.7084 53.6086 61.19 52.8684 60.7598C51.2484 59.789 49.6178 58.5315 48.0193 57.4394C32.8604 47.059 20.7268 30.0489 8.6469 0C-4.50583 21.5218 11.4899 42.9113 38.0635 59.1271C28.6227 54.6705 15.1696 46.8605 0.7617 31.2844C-2.64986 43.1871 12.4339 60.506 35.521 67.2681C21.0594 65.3818 9.80554 56.9209 0 50.0043C2.60694 67.0916 22.9797 73.0044 36.9693 75.7291C23.7092 75.365 8.24996 69.4634 8.24996 69.4634C14.3114 78.7185 22.0786 82.7339 39.8551 83.5943C31.4121 85.1718 26.7668 84.4989 20.4693 83.484C27.7538 89.4298 37.9777 91.0514 46.528 90.4998C42.2046 91.5478 40.5095 91.7022 33.3431 92.2317C41.5824 96.8207 53.7266 97.648 62.4916 96.2581C62.631 100.792 56.2156 103.373 55.9581 105.712C56.3121 106.539 56.9344 107.113 57.4171 107.841C60.0777 101.564 62.5345 101.454 65.0878 104.929C65.6564 104.554 66.1713 101.178 64.4226 95.7727C66.8365 95.177 65.2594 100.13 68.1238 102.954C72.3829 103.097 70.3231 98.1996 71.707 97.0303C73.4557 96.6332 72.0182 99.8543 73.7776 100.505C75.022 99.0821 75.773 96.214 77.2106 95.6293C75.183 100.77 76.0198 103.02 76.7278 105.436C78.4121 103.572 79.9892 103.495 81.6091 102.524C82.0168 103.859 82.4138 105.193 82.8214 106.517C83.0038 105.48 83.1862 104.443 83.3793 103.406C84.1517 104.62 84.9241 105.833 85.6966 107.036C86.7801 102.546 79.3884 101.619 80.6222 96.4236ZM68.0702 119.368C69.2181 114.096 70.3231 108.723 74.4856 109.76C73.7454 107.444 73.209 104.984 72.8657 102.391C71.7392 105.138 69.7867 105.447 67.7162 105.403C67.1154 107.378 66.2679 108.624 65.3989 109.76C65.3345 113.213 64.3475 116.136 63.0709 118.894C64.7445 119.06 66.4073 119.214 68.0702 119.368ZM78.6267 118.541C78.3263 115.706 77.0926 113.114 79.485 109.562C81.3195 111.415 81.7808 114.592 82.5103 117.504C81.2229 117.846 79.9248 118.188 78.6267 118.541ZM75.5477 119.159C75.3332 117.217 75.183 115.143 73.8312 115.32C72.2327 115.982 71.9645 117.747 71.5139 119.368C72.855 119.302 74.196 119.236 75.5477 119.159ZM84.7847 116.721C84.8061 115.982 84.6881 115.342 84.8383 114.493C85.1602 114.746 85.482 115.353 85.7931 116.313C85.4606 116.445 85.1172 116.589 84.7847 116.721ZM57.9214 117.548C58.4256 115.872 58.9298 114.195 59.434 112.507C60.6034 111.316 61.6226 110.102 62.1053 108.767C62.3735 109.109 62.6417 109.462 62.91 109.804C63.1889 112.981 62.5237 115.827 61.6011 118.574C60.3781 118.243 59.1551 117.901 57.9214 117.548ZM55.9045 116.721C55.9903 115.496 56.1405 113.941 55.5504 113.191C55.0462 114.018 54.9389 115.265 54.7458 116.302C55.132 116.445 55.5182 116.589 55.9045 116.721Z" fill="white"/>
<path d="M377.642 112.048H391.566V108.393H382.792V104.022H390.798V100.367H382.792V96.3736H391.269V92.7186H377.642V112.048Z" fill="white"/>
<path d="M394.453 112.049H399.439V105.957C399.439 102.855 400.494 101.442 402.541 101.442C403.903 101.442 404.835 102.353 404.835 105.066V112.049H409.821V103.049C409.821 100.06 408.244 97.285 404.313 97.285C402.04 97.285 400.043 98.1962 399.05 100.275H398.999V97.6126H394.453V112.049V112.049Z" fill="white"/>
<path d="M412.36 111.352C413.824 111.823 415.35 112.048 417.592 112.048C420.858 112.048 424.319 111.076 424.319 107.226C424.319 101.739 416.896 103.52 416.896 101.278C416.896 100.479 418.114 100.285 419.189 100.285C420.438 100.285 422.015 100.612 423.069 101.257L423.458 97.7968C421.851 97.1621 420.111 96.9675 418.391 96.9675C415.514 96.9675 412.248 98.3292 412.248 101.646C412.248 106.847 419.332 105.138 419.332 107.574C419.332 108.567 418.339 108.742 417.316 108.742C415.514 108.742 413.804 108.24 412.637 107.748L412.36 111.352Z" fill="white"/>
<path d="M441.079 105.957V105.046C441.079 100.756 439.144 96.9575 433.799 96.9575C429.315 96.9575 426.07 99.7218 426.07 104.493C426.07 109.254 429.694 112.059 434.455 112.059C436.308 112.059 438.14 111.782 439.748 111.137V107.626C438.253 108.424 436.697 108.731 435.345 108.731C432.909 108.731 431.383 107.953 431.107 105.967H441.079V105.957ZM431.056 103.131C431.168 101.473 432.028 100.111 433.82 100.111C435.816 100.111 436.584 101.473 436.584 103.131H431.056Z" fill="white"/>
<path d="M443.679 112.049H448.665V105.957C448.665 102.855 449.719 101.442 451.767 101.442C453.128 101.442 454.06 102.353 454.06 105.066V112.049H459.046V103.049C459.046 100.06 457.47 97.285 453.538 97.285C451.265 97.285 449.269 98.1962 448.276 100.275H448.224V97.6126H443.679V112.049Z" fill="white"/>
<path d="M476.164 111.711C475.939 110.574 475.888 109.438 475.888 108.301V102.926C475.888 98.5237 472.704 96.947 469.018 96.947C466.889 96.947 465.035 97.2542 463.254 97.9708L463.336 101.349C464.718 100.571 466.325 100.274 467.933 100.274C469.735 100.274 471.199 100.797 471.23 102.762C470.595 102.65 469.704 102.568 468.906 102.568C466.244 102.568 461.452 103.09 461.452 107.492C461.452 110.625 464.001 112.038 466.848 112.038C468.895 112.038 470.277 111.229 471.414 109.427H471.465C471.465 110.175 471.547 110.922 471.578 111.7H476.164V111.711ZM466.11 107.144C466.11 105.762 467.441 105.23 469.131 105.23C469.878 105.23 470.595 105.281 471.24 105.312C471.24 107.001 470.052 108.721 468.168 108.721C467.001 108.721 466.11 108.137 466.11 107.144Z" fill="white"/>
<path d="M494.583 90.9474H489.566V99.1483H489.515C488.246 97.4897 486.556 96.9573 484.56 96.9573C480.577 96.9573 478.386 100.694 478.386 104.237C478.386 108.506 480.679 112.048 484.98 112.048C487.273 112.048 489.3 110.738 489.935 109.141H489.986V111.721H494.583V90.9474V90.9474ZM483.526 104.349C483.526 102.435 484.601 100.776 486.546 100.776C488.379 100.776 489.597 102.353 489.597 104.544C489.597 106.653 488.215 108.23 486.546 108.23C484.662 108.219 483.526 106.643 483.526 104.349Z" fill="white"/>
<path d="M511.579 111.711C511.354 110.574 511.303 109.438 511.303 108.301V102.926C511.303 98.5237 508.119 96.947 504.433 96.947C502.303 96.947 500.45 97.2542 498.669 97.9708L498.751 101.349C500.133 100.571 501.74 100.274 503.348 100.274C505.15 100.274 506.614 100.797 506.644 102.762C506.01 102.65 505.119 102.568 504.32 102.568C501.658 102.568 496.867 103.09 496.867 107.492C496.867 110.625 499.416 112.038 502.262 112.038C504.31 112.038 505.692 111.229 506.829 109.427H506.88C506.88 110.175 506.962 110.922 506.992 111.7H511.579V111.711ZM501.525 107.144C501.525 105.762 502.856 105.23 504.546 105.23C505.293 105.23 506.01 105.281 506.655 105.312C506.655 107.001 505.467 108.721 503.583 108.721C502.416 108.721 501.525 108.137 501.525 107.144Z" fill="white"/>
<path d="M353.582 90.9474H348.565V99.1483H348.514C347.244 97.4897 345.555 96.9573 343.559 96.9573C339.576 96.9573 337.385 100.694 337.385 104.237C337.385 108.506 339.678 112.048 343.978 112.048C346.272 112.048 348.299 110.738 348.934 109.141H348.985V111.721H353.582V90.9474ZM342.525 104.349C342.525 102.435 343.6 100.776 345.545 100.776C347.377 100.776 348.596 102.353 348.596 104.544C348.596 106.653 347.214 108.23 345.545 108.23C343.661 108.219 342.525 106.643 342.525 104.349Z" fill="white"/>
<path d="M369.779 105.957V105.046C369.779 100.756 367.844 96.9575 362.5 96.9575C358.015 96.9575 354.77 99.7218 354.77 104.493C354.77 109.254 358.394 112.059 363.155 112.059C365.008 112.059 366.841 111.782 368.448 111.137V107.626C366.953 108.424 365.397 108.731 364.046 108.731C361.609 108.731 360.083 107.953 359.807 105.967H369.779V105.957ZM359.756 103.131C359.868 101.473 360.728 100.111 362.52 100.111C364.517 100.111 365.284 101.473 365.284 103.131H359.756Z" fill="white"/>
<path d="M176.102 92.381H170.952V103.51C170.952 106.059 170.256 108.22 167.625 108.22C164.994 108.22 164.298 106.059 164.298 103.51V92.381H159.158V104.37C159.158 109.663 162.588 112.049 167.635 112.049C172.672 112.049 176.112 109.663 176.112 104.37V92.381H176.102Z" fill="white"/>
<path d="M179.174 112.049H184.16V105.957C184.16 102.855 185.214 101.442 187.262 101.442C188.624 101.442 189.555 102.353 189.555 105.066V112.049H194.541V103.049C194.541 100.06 192.965 97.285 189.033 97.285C186.76 97.285 184.764 98.1962 183.771 100.275H183.72V97.6126H179.174V112.049Z" fill="white"/>
<path d="M198.227 112.048H203.213V97.6227H198.227V112.048ZM203.213 91.6129H198.227V95.2679H203.213V91.6129Z" fill="white"/>
<path d="M210.964 112.049H216.646L221.99 97.6229H217.035L214.015 107.892H213.953L210.964 97.6229H205.619L210.964 112.049Z" fill="white"/>
<path d="M238.136 105.957V105.046C238.136 100.756 236.201 96.9575 230.856 96.9575C226.372 96.9575 223.126 99.7218 223.126 104.493C223.126 109.254 226.751 112.059 231.512 112.059C233.365 112.059 235.197 111.782 236.805 111.137V107.626C235.31 108.424 233.754 108.731 232.402 108.731C229.966 108.731 228.44 107.953 228.164 105.967H238.136V105.957ZM228.102 103.131C228.215 101.473 229.075 100.111 230.867 100.111C232.863 100.111 233.631 101.473 233.631 103.131H228.102Z" fill="white"/>
<path d="M251.281 97.4588C250.78 97.3769 250.175 97.295 249.592 97.295C247.432 97.295 246.183 98.4622 245.323 100.285H245.271V97.6226H240.726V112.048H245.712V105.957C245.712 103.131 247.012 101.441 249.336 101.441C249.919 101.441 250.472 101.442 251.025 101.605L251.281 97.4588Z" fill="white"/>
<path d="M252.479 111.352C253.943 111.823 255.469 112.048 257.711 112.048C260.977 112.048 264.437 111.076 264.437 107.226C264.437 101.739 257.015 103.52 257.015 101.278C257.015 100.479 258.233 100.285 259.308 100.285C260.557 100.285 262.134 100.612 263.188 101.257L263.577 97.7968C261.97 97.1621 260.23 96.9675 258.51 96.9675C255.633 96.9675 252.367 98.3292 252.367 101.646C252.367 106.847 259.451 105.138 259.451 107.574C259.451 108.567 258.458 108.742 257.435 108.742C255.633 108.742 253.923 108.24 252.756 107.748L252.479 111.352Z" fill="white"/>
<path d="M267.458 112.048H272.444V97.6227H267.458V112.048ZM272.444 91.6129H267.458V95.2679H272.444V91.6129Z" fill="white"/>
<path d="M291.63 90.9474H286.613V99.1483H286.562C285.293 97.4897 283.603 96.9573 281.607 96.9573C277.624 96.9573 275.433 100.694 275.433 104.237C275.433 108.506 277.727 112.048 282.027 112.048C284.32 112.048 286.347 110.738 286.982 109.141H287.033V111.721H291.63V90.9474ZM280.583 104.349C280.583 102.435 281.658 100.776 283.603 100.776C285.436 100.776 286.654 102.353 286.654 104.544C286.654 106.653 285.272 108.23 283.603 108.23C281.719 108.219 280.583 106.643 280.583 104.349Z" fill="white"/>
<path d="M308.637 111.711C308.411 110.574 308.36 109.438 308.36 108.301V102.926C308.36 98.5237 305.176 96.947 301.49 96.947C299.361 96.947 297.508 97.2542 295.726 97.9708L295.808 101.349C297.19 100.571 298.798 100.274 300.405 100.274C302.207 100.274 303.671 100.797 303.702 102.762C303.067 102.65 302.176 102.568 301.378 102.568C298.716 102.568 293.924 103.09 293.924 107.492C293.924 110.625 296.473 112.038 299.32 112.038C301.367 112.038 302.75 111.229 303.886 109.427H303.937C303.937 110.175 304.019 110.922 304.05 111.7H308.637V111.711ZM298.583 107.144C298.583 105.762 299.914 105.23 301.603 105.23C302.35 105.23 303.067 105.281 303.712 105.312C303.712 107.001 302.524 108.721 300.64 108.721C299.463 108.721 298.583 108.137 298.583 107.144Z" fill="white"/>
<path d="M327.045 90.9474H322.028V99.1483H321.977C320.707 97.4897 319.018 96.9573 317.021 96.9573C313.039 96.9573 310.848 100.694 310.848 104.237C310.848 108.506 313.141 112.048 317.441 112.048C319.734 112.048 321.762 110.738 322.396 109.141H322.448V111.721H327.045V90.9474ZM315.997 104.349C315.997 102.435 317.072 100.776 319.018 100.776C320.85 100.776 322.069 102.353 322.069 104.544C322.069 106.653 320.687 108.23 319.018 108.23C317.134 108.219 315.997 106.643 315.997 104.349Z" fill="white"/>
<path d="M202.94 0.168335H218.597V46.7521C218.597 54.7483 215.769 61.5747 210.102 67.231C204.446 72.8874 197.609 75.7258 189.623 75.7258C181.627 75.7258 174.801 72.8976 169.144 67.231C163.488 61.5645 160.66 54.7382 160.66 46.7521V0.168335H176.316V46.7521C176.316 50.4247 177.619 53.5479 180.213 56.1319C182.817 58.7159 185.951 60.008 189.623 60.008C193.296 60.008 196.429 58.7159 199.034 56.1319C201.638 53.5479 202.93 50.4247 202.93 46.7521V0.168335H202.94Z" fill="white"/>
<path d="M270.827 0.168218H286.484V75.7257L244.203 40.7293V75.7257H228.547V0.168218L228.72 0.564978L228.781 0.107178L270.715 37.6875L270.827 0.168218Z" fill="white"/>
<path d="M312.1 75.7156H296.443V0.168335H312.1V75.7156Z" fill="white"/>
<path d="M376.945 0.168335V15.8251H337.706V59.9978H376.945V75.7156H322.039V0.168335H376.945ZM373.618 45.7754H342.467V30.1085H373.618V45.7754Z" fill="white"/>
<path d="M429.174 0.168218H444.831V75.7257L402.551 40.7293V75.7257H386.894V0.168218L387.067 0.564978L387.128 0.107178L429.063 37.6875L429.174 0.168218Z" fill="white"/>
<path d="M488.75 30.0576C495.057 30.0576 500.439 32.2856 504.895 36.7415C509.351 41.1974 511.579 46.5791 511.579 52.8866C511.579 59.1941 509.351 64.586 504.895 69.0317C500.439 73.4876 495.057 75.7156 488.75 75.7156H454.791L474.009 59.9978H488.75C490.734 59.9978 492.422 59.306 493.796 57.9326C495.169 56.5592 495.861 54.8704 495.861 52.8866C495.861 50.9028 495.169 49.214 493.796 47.8406C492.422 46.4672 490.734 45.7754 488.75 45.7754H477.62C471.313 45.7754 465.931 43.5475 461.475 39.0916C457.019 34.6356 454.791 29.2539 454.791 22.9465C454.791 16.639 457.019 11.2675 461.475 6.8217C465.931 2.38612 471.313 0.168335 477.62 0.168335H511.579L492.3 15.8251H477.61C475.616 15.8251 473.927 16.5169 472.533 17.8903C471.14 19.2637 470.438 20.9525 470.438 22.9363C470.438 24.9303 471.14 26.6089 472.533 27.9823C473.927 29.3557 475.626 30.0475 477.61 30.0475H488.75V30.0576Z" fill="white"/>
</svg>
