<svg width="660" height="732" viewBox="0 0 660 732" fill="none" xmlns="http://www.w3.org/2000/svg">
<path fill-rule="evenodd" clip-rule="evenodd" d="M374.445 440.241C415.203 446.587 466.923 442.104 505.14 421.152C471.856 418.735 464.033 418.03 443.903 413.245C483.565 415.814 531.049 408.41 564.931 381.213C535.683 385.796 514.108 388.868 474.895 381.717C557.457 377.788 593.482 359.455 621.683 317.199C621.683 317.199 549.884 344.094 488.298 345.806C553.272 333.366 647.842 306.37 660 228.355C614.459 259.934 562.191 298.564 495.025 307.176C602.251 276.252 672.307 197.229 656.462 142.886C589.595 214.001 527.063 249.659 483.216 270.007C606.636 195.92 680.877 98.2622 619.84 0C559.201 148.224 498.313 226.794 419.638 272.878C415.552 276.504 405.587 277.26 411.865 289.095C427.161 317.753 439.319 360.966 395.97 362.779C389.044 362.729 381.819 362.074 375.093 360.614C355.312 356.182 331.295 332.611 346.692 320.573C353.369 315.335 367.32 317.803 377.634 316.141C383.563 313.573 388.695 314.026 393.13 303.449C371.007 311.054 360.942 302.996 348.386 294.283C332.84 283.555 319.038 278.519 308.923 286.224C295.371 278.619 284.758 279.677 276.636 287.987C318.789 316.242 315.052 355.325 274.543 361.923C267.368 363.082 259.745 363.333 252.669 361.52C221.279 353.361 237.223 309.342 248.036 289.146C251.972 281.742 248.982 279.375 245.544 277.411C238.021 272.978 230.447 267.237 223.023 262.251C152.618 214.857 96.2645 137.194 40.16 0C-20.9271 98.2622 53.364 195.92 176.784 269.957C132.937 249.609 70.4545 213.951 3.53767 142.835C-12.3071 197.179 57.7488 276.252 164.975 307.126C97.8091 298.514 45.5413 259.884 0 228.305C12.1078 306.32 106.728 333.316 171.702 345.756C110.116 344.094 38.3165 317.149 38.3165 317.149C66.4684 359.405 102.543 377.738 185.105 381.666C145.892 388.868 124.317 385.796 95.0687 381.163C128.901 408.309 176.385 415.713 216.097 413.195C196.017 417.979 188.144 418.685 154.86 421.102C193.127 442.054 249.53 445.831 290.239 439.485C290.886 460.185 261.09 471.971 259.894 482.648C261.539 486.425 264.428 489.044 266.671 492.369C279.028 463.711 290.438 463.207 302.297 479.072C304.937 477.36 307.329 461.948 299.207 437.269C310.418 434.55 303.094 457.163 316.397 470.057C336.178 470.712 326.612 448.35 333.039 443.011C341.161 441.198 334.484 455.904 342.656 458.876C348.436 452.379 351.924 439.284 358.6 436.614C349.183 460.085 353.07 470.359 356.358 481.389C364.181 472.877 371.505 472.525 379.029 468.093C380.923 474.187 382.766 480.281 384.659 486.325C385.507 481.59 386.354 476.856 387.25 472.122C390.838 477.662 394.425 483.202 398.013 488.692C403.045 468.193 368.715 463.963 374.445 440.241ZM316.148 545C321.48 520.926 326.612 496.398 345.944 501.132C342.506 490.555 340.015 479.324 338.421 467.488C333.189 480.029 324.12 481.439 314.504 481.238C311.714 490.253 307.777 495.944 303.741 501.132C303.443 516.896 298.859 530.243 292.929 542.834C300.702 543.59 308.425 544.295 316.148 545ZM365.177 541.223C363.782 528.279 358.052 516.443 369.163 500.226C377.684 508.687 379.826 523.192 383.215 536.488C377.235 538.05 371.206 539.611 365.177 541.223ZM350.877 544.043C349.881 535.179 349.183 525.71 342.905 526.516C335.481 529.538 334.235 537.596 332.143 545C338.371 544.698 344.599 544.396 350.877 544.043ZM393.778 532.912C393.877 529.538 393.329 526.617 394.027 522.739C395.522 523.897 397.016 526.667 398.461 531.049C396.917 531.653 395.322 532.308 393.778 532.912ZM269.013 536.69C271.354 529.034 273.696 521.379 276.038 513.673C281.469 508.234 286.203 502.693 288.445 496.599C289.69 498.161 290.936 499.772 292.182 501.334C293.477 515.839 290.388 528.833 286.103 541.374C280.423 539.863 274.743 538.301 269.013 536.69ZM259.645 532.912C260.044 527.322 260.741 520.22 258.001 516.796C255.659 520.573 255.161 526.264 254.264 530.999C256.058 531.653 257.851 532.308 259.645 532.912Z" fill="#004C9C"/>
<path d="M91.0195 595.8H119.17V679.557C119.17 693.934 114.085 706.207 103.897 716.377C93.7266 726.547 81.4347 731.651 67.0759 731.651C52.6988 731.651 40.4252 726.566 30.2551 716.377C20.085 706.189 15 693.915 15 679.557V595.8H43.1506V679.557C43.1506 686.16 45.4919 691.775 50.1563 696.421C54.8389 701.067 60.4727 703.39 67.0759 703.39C73.6791 703.39 79.3129 701.067 83.9956 696.421C88.6782 691.775 91.0012 686.16 91.0012 679.557V595.8H91.0195Z" fill="#004C9C"/>
<path d="M213.079 595.799H241.23V731.65L165.21 668.727V731.65H137.06V595.799L137.371 596.513L137.48 595.689L212.878 663.258L213.079 595.799Z" fill="#004C9C"/>
<path d="M287.287 731.633H259.137V595.8H287.287V731.633Z" fill="#004C9C"/>
<path d="M403.877 595.799V623.949H333.327V703.371H403.877V731.632H305.158V595.799H403.877ZM397.896 677.8H341.888V649.631H397.896V677.8Z" fill="#004C9C"/>
<path d="M497.783 595.799H525.934V731.65L449.914 668.727V731.65H421.764V595.799L422.075 596.513L422.184 595.689L497.582 663.258L497.783 595.799Z" fill="#004C9C"/>
<path d="M604.9 649.539C616.241 649.539 625.917 653.545 633.928 661.557C641.94 669.568 645.946 679.245 645.946 690.585C645.946 701.926 641.94 711.621 633.928 719.614C625.917 727.626 616.241 731.632 604.9 731.632H543.843L578.395 703.371H604.9C608.467 703.371 611.503 702.127 613.972 699.658C616.442 697.189 617.686 694.152 617.686 690.585C617.686 687.019 616.442 683.982 613.972 681.513C611.503 679.043 608.467 677.8 604.9 677.8H584.889C573.548 677.8 563.872 673.794 555.86 665.782C547.849 657.77 543.843 648.094 543.843 636.754C543.843 625.413 547.849 615.755 555.86 607.761C563.872 599.786 573.548 595.799 584.889 595.799H645.946L611.284 623.949H584.871C581.285 623.949 578.249 625.193 575.743 627.663C573.237 630.132 571.975 633.168 571.975 636.735C571.975 640.32 573.237 643.338 575.743 645.808C578.249 648.277 581.304 649.521 584.871 649.521H604.9V649.539Z" fill="#004C9C"/>
</svg>
